<?xml version="1.0" standalone="no"?>
<!DOCTYPE svg PUBLIC "-//W3C//DTD SVG 20010904//EN"
 "http://www.w3.org/TR/2001/REC-SVG-20010904/DTD/svg10.dtd">
<svg version="1.0" xmlns="http://www.w3.org/2000/svg"
 width="700.000000pt" height="700.000000pt" viewBox="0 0 700.000000 700.000000"
 preserveAspectRatio="xMidYMid meet">
<metadata>
Created by potrace 1.14, written by Peter Selinger 2001-2017
</metadata>
<g transform="translate(0.000000,700.000000) scale(0.100000,-0.100000)"
fill="#000000" stroke="none">
<path d="M3765 6656 c-50 -22 -58 -34 -236 -340 -19 -32 -47 -82 -62 -110 -16
-28 -43 -76 -61 -106 -18 -30 -45 -75 -58 -100 -14 -25 -39 -67 -55 -95 -17
-27 -59 -99 -93 -160 -34 -60 -97 -168 -140 -240 -42 -71 -80 -137 -83 -145
-4 -8 -20 -35 -35 -60 -15 -25 -45 -77 -66 -115 -22 -39 -77 -132 -123 -209
-46 -76 -83 -143 -83 -148 0 -5 -8 -21 -18 -36 -21 -29 -75 -121 -114 -192
-14 -25 -49 -85 -78 -135 -29 -49 -80 -137 -113 -195 -86 -153 -83 -151 -122
-87 -17 28 -46 77 -64 107 -19 30 -43 71 -53 90 -21 36 -63 108 -189 320 -41
69 -76 129 -78 135 -2 5 -26 45 -53 87 -26 43 -48 81 -48 84 0 3 -9 19 -21 36
-12 16 -18 32 -15 36 4 3 60 7 126 7 98 1 123 -1 134 -14 8 -9 36 -59 64 -111
110 -209 148 -268 204 -307 l45 -32 53 59 c29 32 68 87 87 122 20 35 72 126
117 203 142 241 166 283 166 292 0 13 38 81 56 101 15 16 110 177 200 337 21
39 42 82 45 96 8 33 -10 77 -45 108 l-26 25 -1108 -1 c-1301 -1 -1470 -3
-1499 -16 -31 -14 -65 -87 -58 -124 2 -17 35 -81 73 -144 38 -63 85 -145 106
-184 22 -38 42 -72 45 -75 3 -3 19 -28 34 -57 15 -29 51 -92 80 -141 29 -48
75 -128 102 -176 28 -48 90 -155 139 -239 48 -84 112 -192 140 -242 96 -164
249 -429 304 -525 30 -52 65 -111 77 -130 13 -19 62 -105 110 -190 48 -85 123
-213 165 -285 43 -71 91 -156 108 -187 16 -32 39 -70 49 -85 11 -15 77 -129
148 -253 234 -411 249 -431 328 -416 50 9 95 62 181 213 44 76 99 171 123 210
23 40 43 75 43 77 0 3 25 46 55 96 30 50 55 93 55 96 0 2 21 39 47 82 26 42
66 114 88 159 23 46 44 80 47 77 4 -3 9 5 13 18 4 13 13 30 20 38 7 8 43 69
81 135 78 139 82 146 194 339 47 81 90 155 95 164 6 10 45 80 89 157 43 77 89
156 101 175 13 19 36 60 53 90 16 30 51 91 78 135 26 44 73 125 104 180 31 55
92 161 135 235 43 74 112 194 153 265 41 72 78 135 82 140 4 6 19 30 33 55 46
85 74 135 97 173 49 82 44 154 -17 259 -18 31 -33 60 -33 64 0 4 -6 15 -14 23
-7 9 -49 84 -92 166 -139 267 -166 308 -227 335 -50 23 -53 23 -92 6z m116
-351 c163 -304 199 -374 199 -389 0 -22 -10 -40 -395 -706 -40 -69 -183 -316
-317 -550 -135 -234 -260 -450 -278 -480 -18 -30 -46 -80 -63 -110 -16 -30
-37 -66 -46 -80 -8 -14 -21 -34 -27 -45 -9 -18 -124 -217 -558 -970 -70 -121
-129 -221 -132 -224 -7 -7 -24 20 -169 268 -75 130 -141 243 -146 251 -21 35
-364 629 -387 670 -13 25 -37 65 -52 90 -15 25 -110 187 -210 360 -283 489
-432 745 -580 1000 -75 129 -149 257 -163 283 -15 26 -34 59 -43 72 l-16 25
188 1 c104 1 613 2 1132 3 l942 2 0 -21 c0 -11 -13 -36 -28 -55 -22 -27 -276
-456 -346 -585 -29 -53 -120 -204 -122 -202 -1 1 -25 47 -54 102 -132 250
-144 257 -440 252 -169 -2 -188 -4 -218 -24 -49 -30 -64 -58 -64 -112 1 -55
32 -119 174 -359 45 -75 102 -173 128 -217 26 -44 78 -132 115 -195 37 -63 79
-135 93 -160 55 -99 125 -201 157 -229 57 -50 136 -53 202 -8 25 17 133 163
133 181 0 2 36 65 80 140 44 76 80 142 80 147 0 18 71 139 81 139 6 0 7 5 4
10 -3 6 -2 10 3 10 5 0 45 62 88 138 43 75 121 211 174 302 53 91 107 183 120
205 12 22 70 121 128 220 57 99 113 196 124 215 50 87 217 376 281 485 109
187 127 218 139 243 6 12 16 21 21 19 5 -1 35 -52 68 -112z"/>
<path d="M4967 5933 c-1 -1 -76 -3 -167 -4 -114 -1 -173 -6 -191 -15 -49 -24
-69 -56 -361 -569 -44 -77 -120 -207 -168 -290 -110 -188 -262 -450 -309 -533
-20 -34 -47 -82 -61 -106 -14 -23 -36 -62 -49 -87 -13 -24 -34 -60 -48 -80
-29 -44 -37 -71 -37 -129 0 -46 20 -95 89 -212 19 -32 50 -88 71 -125 81 -148
210 -384 271 -498 36 -65 75 -135 88 -155 12 -19 32 -54 44 -78 21 -42 22 -43
3 -70 -10 -15 -37 -61 -60 -104 -22 -42 -54 -98 -70 -125 -16 -26 -64 -111
-107 -188 -44 -77 -130 -229 -192 -337 -62 -109 -113 -200 -113 -202 0 -5 -62
-106 -65 -106 -1 0 -30 45 -65 101 -52 83 -61 104 -52 119 6 10 30 53 53 96
23 44 45 84 50 89 4 6 34 57 66 115 33 58 106 186 163 285 140 247 141 248
143 297 1 49 -22 101 -143 323 -39 72 -93 171 -119 220 -78 145 -90 162 -142
200 l-50 36 -57 -59 c-34 -35 -84 -107 -125 -178 -38 -65 -81 -139 -96 -164
-15 -25 -47 -79 -71 -120 -24 -41 -64 -109 -88 -150 -25 -41 -53 -89 -63 -107
-10 -18 -29 -49 -42 -70 -28 -44 -184 -308 -217 -368 -38 -68 -122 -209 -140
-235 -10 -15 -31 -50 -46 -79 -16 -29 -39 -70 -51 -92 -13 -25 -20 -51 -17
-67 6 -32 43 -108 83 -172 35 -55 246 -412 273 -460 27 -49 183 -312 228 -385
20 -33 50 -82 66 -110 16 -27 33 -57 39 -66 5 -9 21 -36 34 -60 37 -68 241
-410 270 -453 54 -82 127 -98 186 -44 33 31 111 153 223 348 27 47 65 112 84
145 20 33 67 114 105 180 84 144 177 303 331 565 63 107 132 224 152 260 39
70 182 315 260 445 56 95 184 313 300 514 73 126 84 151 88 200 2 41 -2 65
-15 88 -10 18 -50 88 -89 155 -40 68 -84 146 -99 173 -16 28 -43 74 -62 103
-18 29 -33 54 -33 56 0 2 -43 77 -96 167 -53 90 -112 193 -131 229 -19 36 -42
79 -52 96 l-18 30 36 65 c21 35 57 98 80 139 24 41 59 104 78 140 20 36 39 70
43 75 4 6 39 66 77 135 176 315 232 410 247 411 31 4 236 5 236 1 0 -8 -54
-107 -66 -122 -7 -8 -27 -42 -44 -75 -18 -33 -70 -123 -115 -200 -196 -332
-260 -442 -277 -477 -35 -71 -29 -89 107 -323 32 -55 75 -129 95 -165 149
-266 167 -293 200 -316 52 -36 104 -29 153 20 24 24 93 136 220 357 30 53 67
115 81 137 14 23 26 44 26 46 0 7 72 130 80 136 3 3 19 30 34 60 16 30 37 64
47 76 10 11 19 27 19 35 0 8 7 24 15 34 9 11 54 88 102 170 47 83 110 191 139
241 30 50 54 96 54 103 0 7 9 23 21 35 11 12 33 44 48 71 58 103 73 130 81
140 5 6 23 37 41 70 17 33 67 119 110 190 42 72 81 143 84 158 4 15 10 25 13
22 3 -3 21 21 39 52 18 32 38 65 43 73 92 151 107 205 70 253 -40 51 31 47
-1103 50 -384 1 -699 1 -700 0z m1567 -205 c-1 -9 -149 -270 -329 -580 -673
-1155 -812 -1394 -844 -1450 -18 -32 -36 -60 -41 -63 -5 -3 -15 7 -22 22 -8
16 -72 128 -142 251 -118 205 -127 225 -118 252 6 16 57 109 115 207 293 500
347 592 376 638 59 94 64 170 13 217 -45 42 -79 47 -290 45 -280 -3 -245 27
-507 -437 -70 -124 -141 -250 -158 -280 -17 -30 -41 -72 -54 -92 -13 -21 -23
-39 -23 -41 0 -2 -23 -44 -51 -93 -112 -195 -113 -217 -5 -408 41 -72 83 -147
94 -166 10 -19 34 -60 52 -90 18 -30 52 -89 75 -130 23 -41 94 -165 157 -275
63 -110 118 -210 122 -222 5 -16 -61 -137 -300 -545 -169 -287 -391 -667 -494
-843 -176 -301 -458 -782 -573 -977 -28 -49 -54 -88 -57 -88 -3 0 -23 33 -46
73 -22 39 -152 261 -289 492 -458 774 -565 959 -565 974 0 15 6 25 290 506
180 305 372 631 394 670 104 181 146 241 146 205 0 -5 23 -52 51 -102 89 -159
189 -359 189 -377 0 -9 -10 -32 -22 -51 -11 -19 -31 -53 -43 -75 -13 -22 -76
-132 -140 -245 -65 -113 -129 -225 -143 -250 -14 -25 -33 -58 -43 -75 -46 -76
-90 -175 -91 -203 -1 -16 9 -50 21 -74 44 -83 166 -271 199 -304 89 -89 194
-50 274 103 14 26 107 192 207 368 456 799 431 752 424 815 -3 29 -45 113
-188 375 -56 101 -200 364 -221 402 -49 89 -78 140 -115 206 -22 38 -39 75
-39 82 0 8 -4 16 -10 20 -13 8 -6 23 73 160 38 66 127 219 197 340 70 121 230
398 355 615 125 217 245 423 268 458 l40 63 916 -3 c857 -3 916 -4 915 -20z"/>
</g>
</svg>
